<?xml version="1.0" encoding="iso-8859-1"?>
<!-- Generator: Adobe Illustrator 26.3.1, SVG Export Plug-In . SVG Version: 6.00 Build 0)  -->
<svg version="1.1" id="&#x421;&#x43B;&#x43E;&#x439;_1"
	 xmlns="http://www.w3.org/2000/svg" xmlns:xlink="http://www.w3.org/1999/xlink" x="0px" y="0px" viewBox="0 0 64 64"
	 style="enable-background:new 0 0 64 64;" xml:space="preserve">
<g>
	<path style="fill:#37D0EE;" d="M48,55H17c-2.209,0-4-1.791-4-4V11c0-2.209,1.791-4,4-4h21.311c1.06,0,2.077,0.421,2.827,1.17
		l9.689,9.68C51.578,18.601,52,19.619,52,20.68V51C52,53.209,50.209,55,48,55z"/>
	<ellipse style="opacity:0.3;" cx="32" cy="61" rx="20.125" ry="3"/>
	<g>
		<path style="opacity:0.3;fill:#FFFFFF;" d="M13,11v18c2.762,0,5-2.238,5-5V12.652c0-0.42,0.264-0.795,0.66-0.934
			C20.605,11.033,22,9.18,22,7h-5C14.791,7,13,8.791,13,11z"/>
		<path style="opacity:0.15;" d="M52,51V28c-2.762,0-5,2.238-5,5v16c0,0.552-0.448,1-1,1h-9c-2.762,0-5,2.238-5,5h16
			C50.209,55,52,53.209,52,51z"/>
	</g>
	
		<line style="fill:none;stroke:#FFFFFF;stroke-width:3;stroke-linecap:round;stroke-linejoin:round;stroke-miterlimit:10;" x1="16.5" y1="12.5" x2="16.5" y2="19.5"/>
	<path style="fill:#008AA9;" d="M50.827,17.851l-9.689-9.68C40.806,7.839,40.417,7.584,40,7.389V15c0,2.209,1.791,4,4,4h7.616
		C51.42,18.579,51.162,18.185,50.827,17.851z"/>
</g>
</svg>